<svg width="812" height="345" xmlns="http://www.w3.org/2000/svg" xmlns:xlink="http://www.w3.org/1999/xlink" xml:space="preserve" overflow="hidden"><defs><clipPath id="clip0"><rect x="985" y="551" width="812" height="345"/></clipPath><clipPath id="clip1"><path d="M1000.26 855.857 1036.79 778.285 1120.93 817.902 1084.41 895.474Z" fill-rule="evenodd" clip-rule="evenodd"/></clipPath><clipPath id="clip2"><path d="M1000.26 855.857 1036.79 778.285 1120.93 817.902 1084.41 895.474Z" fill-rule="evenodd" clip-rule="evenodd"/></clipPath><clipPath id="clip3"><path d="M1000.26 855.857 1036.79 778.285 1120.93 817.902 1084.41 895.474Z" fill-rule="evenodd" clip-rule="evenodd"/></clipPath><clipPath id="clip4"><path d="M1084.12 551.204 1111.18 641.888 1012.81 671.239 985.756 580.555Z" fill-rule="evenodd" clip-rule="evenodd"/></clipPath><clipPath id="clip5"><path d="M1084.12 551.204 1111.18 641.888 1012.81 671.239 985.756 580.555Z" fill-rule="evenodd" clip-rule="evenodd"/></clipPath><clipPath id="clip6"><path d="M1084.12 551.204 1111.18 641.888 1012.81 671.239 985.756 580.555Z" fill-rule="evenodd" clip-rule="evenodd"/></clipPath></defs><g clip-path="url(#clip0)" transform="translate(-985 -551)"><rect x="992" y="573" width="805" height="301" fill="#FFD966"/><path d="M1106.29 683.945C1105.58 674.98 1112.28 667.143 1121.25 666.44L1714.97 619.891C1723.93 619.189 1731.77 625.886 1732.47 634.851L1745.06 795.36C1745.76 804.325 1739.06 812.162 1730.1 812.865L1136.38 859.413C1127.41 860.116 1119.57 853.418 1118.87 844.453Z" fill="#FB6437" fill-rule="evenodd"/><path d="M1079.19 657.958C1078.49 648.993 1085.19 641.156 1094.15 640.453L1687.88 593.904C1696.84 593.201 1704.68 599.899 1705.38 608.864L1717.96 769.373C1718.67 778.338 1711.97 786.175 1703 786.878L1109.28 833.426C1100.32 834.129 1092.48 827.431 1091.78 818.466Z" fill="#FFF2D3" fill-rule="evenodd"/><path d="M1128.54 674.642C1136.31 673.217 1143.71 678.057 1145.07 685.451 1146.42 692.846 1141.22 699.996 1133.45 701.421 1129.57 702.134 1125.78 701.28 1122.79 699.324L1121.42 697.996 1042.14 705.519 1040.75 689.274 1118.62 681.885 1119.31 680.388C1121.41 677.498 1124.66 675.355 1128.54 674.642Z" fill="#183B58" fill-rule="evenodd"/><text fill="#173A5A" font-family="Aptos,Aptos_MSFontService,sans-serif" font-weight="700" font-size="92" transform="matrix(0.997336 -0.0729492 0.0729492 0.997336 1259.9 753)">English</text><g clip-path="url(#clip1)"><g clip-path="url(#clip2)"><g clip-path="url(#clip3)"><path d="M42.8697 80.3807C33.4919 80.3807 25.9004 72.7892 25.9004 63.4114L25.9004 17.8624C25.9004 10.9854 31.5271 5.35871 38.4041 5.35871 45.2811 5.35871 50.9078 10.9854 50.9078 17.8624L50.9078 59.8389C50.9078 64.3045 47.3353 67.877 42.8697 67.877 38.4041 67.877 34.8316 64.3045 34.8316 59.8389L34.8316 38.4041 40.1903 38.4041 40.1903 59.8389C40.1903 61.3572 41.3514 62.5183 42.8697 62.5183 44.388 62.5183 45.549 61.3572 45.549 59.8389L45.549 17.8624C45.549 13.9326 42.3338 10.7174 38.4041 10.7174 34.4744 10.7174 31.2591 13.9326 31.2591 17.8624L31.2591 63.4114C31.2591 69.8419 36.4392 75.0219 42.8697 75.0219 49.3001 75.0219 54.4802 69.8419 54.4802 63.4114L54.4802 44.6559 59.8389 44.6559 59.8389 63.4114C59.8389 72.7892 52.2474 80.3807 42.8697 80.3807Z" fill="#0070C0" transform="matrix(0.425962 -0.904741 0.981412 0.462059 1000.26 855.857)"/></g></g></g><path d="M1320 848C1365.29 848 1402 858.169 1402 870.713L1400.8 874 1239.2 874 1238 870.713C1238 858.169 1274.71 848 1320 848Z" fill="#FF0066" fill-rule="evenodd"/><path d="M1797 573 1797 874 1790.81 867.406C1774.47 843.697 1763 788.191 1763 723.5 1763 658.808 1774.47 603.303 1790.81 579.594Z" fill="#023E8A" fill-rule="evenodd"/><g clip-path="url(#clip4)"><g clip-path="url(#clip5)"><g clip-path="url(#clip6)"><path d="M47.3173 88.72C36.9667 88.72 28.5875 80.3409 28.5875 69.9902L28.5875 19.7156C28.5875 12.1251 34.7979 5.91467 42.3884 5.91467 49.9789 5.91467 56.1893 12.1251 56.1893 19.7156L56.1893 66.0471C56.1893 70.976 52.2462 74.9191 47.3173 74.9191 42.3884 74.9191 38.4453 70.976 38.4453 66.0471L38.4453 42.3884 44.36 42.3884 44.36 66.0471C44.36 67.7229 45.6415 69.0044 47.3173 69.0044 48.9931 69.0044 50.2747 67.7229 50.2747 66.0471L50.2747 19.7156C50.2747 15.3781 46.7259 11.8293 42.3884 11.8293 38.051 11.8293 34.5022 15.3781 34.5022 19.7156L34.5022 69.9902C34.5022 77.0878 40.2197 82.8053 47.3173 82.8053 54.4149 82.8053 60.1324 77.0878 60.1324 69.9902L60.1324 49.2889 66.0471 49.2889 66.0471 69.9902C66.0471 80.3409 57.668 88.72 47.3173 88.72Z" fill="#548235" transform="matrix(0.285923 0.958253 -1.03946 0.310152 1084.12 551.204)"/></g></g></g><path d="M1141.53 778.591C1149.3 777.166 1156.7 782.005 1158.06 789.4 1159.41 796.795 1154.22 803.945 1146.45 805.37 1142.56 806.082 1138.77 805.229 1135.78 803.273L1134.42 801.945 1055.13 809.468 1053.74 793.222 1131.61 785.834 1132.31 784.337C1134.41 781.447 1137.65 779.303 1141.53 778.591Z" fill="#183B58" fill-rule="evenodd"/></g></svg>