<svg width="1598" height="1559" xmlns="http://www.w3.org/2000/svg" xmlns:xlink="http://www.w3.org/1999/xlink" xml:space="preserve" overflow="hidden"><defs><clipPath id="clip0"><rect x="2031" y="81" width="1598" height="1559"/></clipPath></defs><g clip-path="url(#clip0)" transform="translate(-2031 -81)"><path d="M2290.84 81.0001 3629 81.0001 3629 1380.16C3629 1523.67 3512.67 1640 3369.16 1640L2031 1640 2031 340.838C2031 197.333 2147.33 81.0001 2290.84 81.0001Z" fill="#FFD966" fill-rule="evenodd"/><text font-family="Calibri,Calibri_MSFontService,sans-serif" font-weight="700" font-size="92" transform="matrix(1 0 0 1 2265.86 754)">тема урока</text><text font-family="Calibri,Calibri_MSFontService,sans-serif" font-weight="700" font-size="92" transform="matrix(1 0 0 1 2909.72 754)">упражнения </text><g><g><g><path d="M2551.51 1070.62C2554.03 1073.14 2554.03 1077.04 2551.51 1079.56L2540.8 1083.09 2538.91 1081.2 2542.44 1070.49C2545.08 1068.09 2548.99 1068.09 2551.51 1070.62ZM2601.04 1004.82 2538.02 1067.97 2530.08 1091.92 2554.16 1083.98 2617.18 1020.96"/><path d="M2629.53 1001.42 2620.58 992.47C2618.56 990.453 2615.41 990.453 2613.4 992.47L2604.57 1001.29 2620.58 1017.3 2629.4 1008.48C2631.55 1006.59 2631.55 1003.44 2629.53 1001.42Z"/></g></g></g><text font-family="Calibri,Calibri_MSFontService,sans-serif" font-weight="700" font-size="92" transform="matrix(1 0 0 1 2303.66 1344)">домашнее </text><text font-family="Calibri,Calibri_MSFontService,sans-serif" font-weight="700" font-size="92" transform="matrix(1 0 0 1 2351.05 1454)">задание</text><text font-family="Calibri,Calibri_MSFontService,sans-serif" font-weight="700" font-size="92" transform="matrix(1 0 0 1 2984.97 1344)">проверка </text><text font-family="Calibri,Calibri_MSFontService,sans-serif" font-weight="700" font-size="92" transform="matrix(1 0 0 1 2839.79 1454)">преподавателем</text><g><g><g><path d="M335.344 376.688 105.656 376.688 105.656 91.875 156.188 91.875 156.188 119.438 284.813 119.438 284.813 91.875 335.344 91.875 335.344 376.688ZM220.5 55.125C228.309 55.125 234.281 61.0969 234.281 68.9063 234.281 76.7156 228.309 82.6875 220.5 82.6875 212.691 82.6875 206.719 76.7156 206.719 68.9063 206.719 65.2313 208.097 61.5563 210.853 59.2594 213.15 56.5031 216.825 55.125 220.5 55.125ZM344.531 64.3125 266.438 64.3125 266.438 55.125C266.438 45.0188 258.169 36.75 248.063 36.75L192.938 36.75C182.831 36.75 174.563 45.0188 174.563 55.125L174.563 64.3125 96.4688 64.3125C86.3625 64.3125 78.0938 72.5813 78.0938 82.6875L78.0938 385.875C78.0938 395.981 86.3625 404.25 96.4688 404.25L344.531 404.25C354.638 404.25 362.906 395.981 362.906 385.875L362.906 82.6875C362.906 72.5813 354.638 64.3125 344.531 64.3125Z" transform="matrix(1.17687 0 0 1 2260 835)"/></g></g></g><g><g><g><path d="M335.344 376.688 105.656 376.688 105.656 91.875 156.188 91.875 156.188 119.438 284.813 119.438 284.813 91.875 335.344 91.875 335.344 376.688ZM220.5 55.125C228.309 55.125 234.281 61.0969 234.281 68.9063 234.281 76.7156 228.309 82.6875 220.5 82.6875 212.691 82.6875 206.719 76.7156 206.719 68.9063 206.719 65.2313 208.097 61.5563 210.853 59.2594 213.15 56.5031 216.825 55.125 220.5 55.125ZM344.531 64.3125 266.438 64.3125 266.438 55.125C266.438 45.0188 258.169 36.75 248.063 36.75L192.938 36.75C182.831 36.75 174.563 45.0188 174.563 55.125L174.563 64.3125 96.4688 64.3125C86.3625 64.3125 78.0938 72.5813 78.0938 82.6875L78.0938 385.875C78.0938 395.981 86.3625 404.25 96.4688 404.25L344.531 404.25C354.638 404.25 362.906 395.981 362.906 385.875L362.906 82.6875C362.906 72.5813 354.638 64.3125 344.531 64.3125Z" transform="matrix(1.1746 0 0 1 2902 835)"/></g></g></g><path d="M3291 1021.93 3279.46 1010 3252.26 1038.13 3241.54 1027.05 3230 1038.98 3252.26 1062Z" fill-rule="evenodd"/><path d="M3291 1093.93 3279.46 1082 3252.26 1110.13 3241.54 1099.05 3230 1110.98 3252.26 1134Z" fill-rule="evenodd"/><path d="M3071 1032 3205 1032 3205 1049 3071 1049Z" fill-rule="evenodd"/><path d="M3071 1104 3205 1104 3205 1121 3071 1121Z" fill-rule="evenodd"/><path d="M2395 1032 2529 1032 2529 1049 2395 1049Z" fill-rule="evenodd"/><path d="M2395 1104 2529 1104 2529 1121 2395 1121Z" fill-rule="evenodd"/><path d="M2477.5 406.5 2550.5 443 2477.5 479.5Z" stroke="#172C51" stroke-width="4.58333" stroke-miterlimit="8" fill-rule="evenodd"/><g><g><g><path d="M381.812 298 65.1875 298 65.1875 93.125 381.812 93.125 381.812 298ZM391.125 65.1875 55.875 65.1875C45.6312 65.1875 37.25 73.5687 37.25 83.8125L37.25 307.312C37.25 317.556 45.6312 325.937 55.875 325.937L186.25 325.937 186.25 353.875 139.687 353.875 139.687 381.812 307.312 381.812 307.312 353.875 260.75 353.875 260.75 325.937 391.125 325.937C401.369 325.937 409.75 317.556 409.75 307.312L409.75 83.8125C409.75 73.5687 401.369 65.1875 391.125 65.1875Z" transform="matrix(1 0 0 1 2280 237)"/></g></g></g><path d="M3134 413 3250 413 3250 427 3134 427Z" fill-rule="evenodd"/><path d="M3134 475 3250 475 3250 489 3134 489Z" fill-rule="evenodd"/><path d="M3069 404.098 3058.78 394 3034.7 417.803 3025.22 408.426 3015 418.525 3034.7 438Z" fill-rule="evenodd"/><path d="M3069 466.098 3058.78 456 3034.7 479.804 3025.22 470.426 3015 480.525 3034.7 500Z" fill-rule="evenodd"/><g><g><g><path d="M380.958 297.333 65.0417 297.333 65.0417 92.9167 380.958 92.9167 380.958 297.333ZM390.25 65.0417 55.75 65.0417C45.5292 65.0417 37.1667 73.4042 37.1667 83.625L37.1667 306.625C37.1667 316.846 45.5292 325.208 55.75 325.208L185.833 325.208 185.833 353.083 139.375 353.083 139.375 380.958 306.625 380.958 306.625 353.083 260.167 353.083 260.167 325.208 390.25 325.208C400.471 325.208 408.834 316.846 408.834 306.625L408.834 83.625C408.834 73.4042 400.471 65.0417 390.25 65.0417Z" transform="matrix(1 0 0 1.00224 2923 237)"/></g></g></g></g></svg>