<svg width="1598" height="1559" xmlns="http://www.w3.org/2000/svg" xmlns:xlink="http://www.w3.org/1999/xlink" xml:space="preserve" overflow="hidden"><g transform="translate(-342 -68)"><path d="M601.825 68.0001 1940 68.0001 1940 1367.09C1940 1510.59 1823.67 1626.92 1680.17 1626.92L342 1626.92 342 327.826C342 184.328 458.328 68.0001 601.825 68.0001Z" fill="#FFD966" fill-rule="evenodd"/><text font-family="Calibri,Calibri_MSFontService,sans-serif" font-weight="700" font-size="92" transform="matrix(1 0 0 1 564.91 784)">фонетика</text><text font-family="Calibri,Calibri_MSFontService,sans-serif" font-weight="700" font-size="92" transform="matrix(1 0 0 1 1247.75 781)">грамматика </text><text font-family="Calibri,Calibri_MSFontService,sans-serif" font-weight="700" font-size="92" transform="matrix(1 0 0 1 609.403 1368)">лексика</text><text font-family="Calibri,Calibri_MSFontService,sans-serif" font-weight="700" font-size="92" transform="matrix(1 0 0 1 1193.52 1366)">развитие речи</text><g><g><g><path d="M199.068 297.402C199.068 308.346 190.197 317.218 179.253 317.218 168.31 317.218 159.438 308.346 159.438 297.402 159.438 286.459 168.31 277.587 179.253 277.587 190.197 277.587 199.068 286.459 199.068 297.402Z" transform="matrix(1.00239 0 0 1 1264 874)"/><path d="M218.229 362.26 218.229 342.445C218.164 339.357 216.724 336.46 214.301 334.545 208.607 330.156 202.092 326.951 195.14 325.118 189.893 323.507 184.436 322.683 178.948 322.673 173.465 322.758 168.018 323.58 162.755 325.118 155.881 327.153 149.402 330.341 143.595 334.545 141.171 336.46 139.731 339.357 139.667 342.445L139.667 362.26Z" transform="matrix(1.00239 0 0 1 1264 874)"/><path d="M285.749 297.402C285.749 308.346 276.877 317.218 265.934 317.218 254.99 317.218 246.119 308.346 246.119 297.402 246.119 286.459 254.99 277.587 265.934 277.587 276.877 277.587 285.749 286.459 285.749 297.402Z" transform="matrix(1.00239 0 0 1 1264 874)"/><path d="M305.521 362.26 305.521 342.445C305.456 339.357 304.016 336.46 301.592 334.545 295.898 330.156 289.383 326.951 282.432 325.118 277.185 323.507 271.728 322.683 266.239 322.673 260.757 322.758 255.31 323.58 250.047 325.118 243.173 327.153 236.693 330.341 230.886 334.545 228.463 336.46 227.023 339.357 226.958 342.445L226.958 362.26Z" transform="matrix(1.00239 0 0 1 1264 874)"/><path d="M373.041 297.402C373.041 308.346 364.169 317.218 353.225 317.218 342.282 317.218 333.41 308.346 333.41 297.402 333.41 286.459 342.282 277.587 353.225 277.587 364.169 277.587 373.041 286.459 373.041 297.402Z" transform="matrix(1.00239 0 0 1 1264 874)"/><path d="M392.812 362.26 392.812 342.445C392.748 339.357 391.307 336.46 388.884 334.545 383.19 330.156 376.675 326.951 369.724 325.118 364.476 323.507 359.019 322.683 353.531 322.673 348.048 322.758 342.602 323.58 337.338 325.118 330.464 327.153 323.985 330.341 318.178 334.545 315.755 336.46 314.314 339.357 314.25 342.445L314.25 362.26Z" transform="matrix(1.00239 0 0 1 1264 874)"/><path d="M119.677 114.177C119.677 128.496 108.069 140.103 93.7512 140.103 79.4329 140.103 67.8256 128.496 67.8256 114.177 67.8256 99.8591 79.4329 88.2518 93.7512 88.2518 108.069 88.2518 119.677 99.8591 119.677 114.177Z" transform="matrix(1.00239 0 0 1 1264 874)"/><path d="M246.642 104.183C244.076 101.653 239.955 101.653 237.389 104.183L180.999 160.573C176.493 159.301 171.65 160.532 168.298 163.803 167.382 164.719 151.102 191.343 151.102 191.343L146.213 170.524C145.566 167.84 144.227 165.372 142.329 163.366 134.285 156.863 125.026 152.027 115.094 149.138 108.072 147.636 100.929 146.774 93.7512 146.563 86.5099 146.674 79.3162 147.761 72.3647 149.792 62.3423 152.42 53.0458 157.285 45.1734 164.021 43.2583 166.014 41.9163 168.487 41.2889 171.179 41.2889 171.179 22.4776 250.178 22.4776 251.487 22.4776 258.719 28.3399 264.581 35.5713 264.581 41.3666 264.432 46.3741 260.49 47.8794 254.891L61.4969 198.545 61.4969 379.718 87.2916 379.718 87.2916 263.141 100.385 263.141 100.385 379.718 126.136 379.718 126.136 197.715 130.937 218.229C131.27 219.647 132.213 220.845 133.512 221.502 138.531 225.355 144.646 227.51 150.971 227.656 155.089 228.233 159.17 226.379 161.446 222.899L188.07 179.253C189.771 176.57 190.41 173.348 189.859 170.219L246.599 113.479C249.169 110.92 249.188 106.765 246.642 104.183Z" transform="matrix(1.00239 0 0 1 1264 874)"/><path d="M336.073 43.6458 122.208 43.6458C112.566 43.6458 104.75 51.4623 104.75 61.1041L104.75 76.8166C111.423 78.6331 117.465 82.2584 122.208 87.2916L122.208 61.1041 336.073 61.1041 336.073 205.135 187.11 205.135 176.46 222.594 336.073 222.594C345.714 222.594 353.531 214.777 353.531 205.135L353.531 61.1041C353.531 51.4623 345.714 43.6458 336.073 43.6458Z" transform="matrix(1.00239 0 0 1 1264 874)"/></g></g></g><g><g><g><path d="M1506.99 352.829C1496.73 352.829 1488.26 361.3 1488.26 371.554 1488.26 381.808 1496.73 390.279 1506.99 390.279 1517.24 390.279 1525.71 381.808 1525.71 371.554 1525.71 361.3 1517.24 352.829 1506.99 352.829Z"/><path d="M1469.54 462.058C1469.54 472.4 1461.15 480.783 1450.81 480.783 1440.47 480.783 1432.09 472.4 1432.09 462.058 1432.09 451.717 1440.47 443.333 1450.81 443.333 1461.15 443.333 1469.54 451.717 1469.54 462.058Z"/><path d="M1560.04 377.796 1548.9 383.146C1548 386.713 1546.22 389.833 1544.44 392.954L1548.45 404.546 1539.53 413.463 1527.94 409.45C1524.82 411.233 1521.7 412.571 1518.13 413.463L1512.78 424.163 1500.3 424.163 1494.95 413.017C1491.38 412.125 1488.26 410.788 1485.14 409.004L1473.55 413.017 1464.63 404.1 1468.65 392.508C1466.86 389.388 1465.53 386.267 1464.63 382.7L1453.49 377.35 1453.49 364.867 1464.63 359.517C1465.53 355.95 1466.86 352.829 1468.65 349.708L1465.08 338.117 1474 329.2 1485.59 333.213C1488.71 331.429 1491.83 330.092 1495.4 329.2L1500.75 318.054 1513.23 318.054 1518.58 328.754C1522.15 329.646 1525.27 330.983 1528.39 332.767L1539.98 328.754 1548.9 337.671 1544.88 349.263C1546.67 352.383 1548 355.504 1548.9 359.071L1560.04 364.421 1560.04 377.796ZM1503.87 468.3 1492.72 473.65C1491.83 477.217 1490.49 480.338 1488.71 483.458L1492.28 495.05 1483.36 503.967 1471.77 499.954C1468.65 501.737 1465.53 503.075 1461.96 503.967L1457.05 514.667 1444.57 514.667 1439.22 503.521C1435.65 502.629 1432.53 501.292 1429.41 499.508L1417.82 503.075 1408.9 494.158 1412.92 482.567C1411.13 479.446 1409.8 476.325 1408.9 472.758L1397.76 467.408 1397.76 454.925 1408.9 449.575C1409.8 446.008 1411.13 442.888 1412.92 439.767L1408.9 428.175 1417.82 419.258 1429.41 423.271C1432.53 421.488 1435.65 420.15 1439.22 419.258L1444.57 408.113 1457.5 408.113 1462.85 419.258C1466.42 420.15 1469.54 421.488 1472.66 423.271L1484.25 419.258 1493.17 428.175 1489.15 439.767C1490.94 442.888 1492.28 446.008 1493.17 449.575L1504.31 454.925 1503.87 468.3 1503.87 468.3ZM1658.12 484.796 1627.36 431.296 1627.36 429.067C1629.15 380.025 1604.18 334.104 1561.82 308.692 1519.47 283.725 1467.31 283.725 1424.95 308.692 1382.6 333.658 1357.63 380.025 1359.42 429.067 1359.42 471.421 1378.59 511.1 1412.03 536.958L1412.03 649.754 1552.91 649.754 1552.91 596.254 1574.75 596.254C1589.02 596.254 1602.4 590.458 1612.2 580.65 1622.01 570.396 1627.36 557.021 1627.36 542.754L1627.36 516.004 1646.98 516.004C1658.57 514.667 1668.82 501.292 1658.12 484.796Z"/></g></g></g><g><g><g><path d="M334.181 432.169 329.062 433.631C310.05 440.212 298.35 456.3 302.737 468.731 307.125 481.163 326.869 486.281 345.881 478.969 357.581 475.312 367.087 466.537 372.206 455.569L372.206 431.437C481.894 432.169 586.462 450.45 661.781 481.894L664.706 475.312C587.925 443.137 484.087 425.587 372.206 424.125L372.206 387.562C379.519 387.562 386.831 387.562 394.144 388.294 397.8 400.725 394.875 411.694 403.65 411.694 410.231 411.694 414.619 402.187 415.35 389.025 508.95 394.144 595.969 410.962 661.05 438.019L663.975 431.437C609.862 410.231 553.556 395.606 495.787 389.025 508.95 386.1 519.919 377.325 525.769 364.894L525.769 357.581C572.569 364.894 617.906 377.325 661.781 394.875L664.706 388.294C620.1 370.744 573.3 357.581 525.769 350.269L525.769 313.706C572.569 321.019 617.906 333.45 661.781 351L664.706 344.419C620.1 326.869 573.3 313.706 525.769 306.394L525.769 269.831C572.569 277.144 617.906 289.575 661.781 307.125L664.706 300.544C620.1 282.994 573.3 269.831 525.769 262.519L525.769 207.675C525.769 202.556 522.112 198.9 516.994 198.9 511.875 198.9 508.219 202.556 508.219 207.675L508.219 259.594C459.225 252.281 410.962 248.625 361.969 248.625 334.181 248.625 306.394 250.087 279.337 252.281L279.337 201.825 140.4 234 140.4 273.487C104.569 282.262 69.4687 294.694 35.8312 310.781L38.7562 317.362C70.9312 301.275 105.3 289.575 140.4 280.8L140.4 317.362C104.569 326.137 69.4687 338.569 35.8312 354.656L38.7562 361.237C70.9312 345.15 105.3 333.45 140.4 324.675L140.4 346.612C132.356 345.15 124.312 345.881 117 348.806 102.375 353.925 92.8687 364.894 92.8687 375.131 73.125 381.712 54.8437 389.025 35.8312 398.531L38.7562 405.112C56.3062 396.337 75.3187 389.025 93.6 382.444 98.7187 392.681 114.806 396.337 131.625 390.487 145.519 385.369 155.025 375.131 155.756 365.625 175.5 361.237 195.244 357.581 216.45 354.656 216.45 355.387 216.45 356.119 217.181 357.581 221.569 369.281 238.387 372.937 255.937 367.087 265.444 364.162 273.487 357.581 278.606 348.806 303.469 346.612 329.062 345.881 354.656 345.15L354.656 381.712C229.612 382.444 113.344 405.112 35.8312 443.869L38.7562 450.45C115.537 412.425 230.344 389.756 353.925 389.025L353.925 425.587C228.881 426.319 112.612 448.987 35.1 487.744L38.025 494.325C111.15 456.3 217.912 434.362 334.181 432.169L334.181 432.169ZM361.969 255.937C410.962 255.937 459.225 259.594 507.487 266.175L507.487 302.737C462.15 296.156 415.35 292.5 369.281 292.5 367.819 291.037 365.625 289.575 362.7 289.575 360.506 289.575 358.312 290.306 356.119 292.5 329.794 292.5 304.2 293.962 279.337 295.425L279.337 258.862C306.394 257.4 334.181 255.937 361.969 255.937ZM155.756 252.281 263.981 226.687 263.981 253.012C227.419 256.669 191.587 261.787 155.756 269.831L155.756 252.281ZM155.756 277.875C191.587 269.831 227.419 263.981 263.981 261.056L263.981 297.619C227.419 301.275 191.587 306.394 155.756 314.437L155.756 277.875ZM155.756 321.75C191.587 313.706 227.419 307.856 263.981 304.931L263.981 323.212C255.937 321.75 247.894 322.481 240.581 325.406 229.612 328.331 220.837 337.106 217.181 347.344 195.975 350.269 176.231 353.925 156.487 358.312L155.756 321.75ZM280.069 340.031 280.069 303.469C304.2 301.275 329.062 299.812 354.656 299.812L354.656 336.375C329.062 336.375 304.2 337.837 280.069 340.031ZM371.475 380.25 371.475 362.7C372.937 364.162 374.4 364.894 375.862 365.625 381.712 369.281 386.831 374.4 390.487 380.25L371.475 380.25ZM456.3 377.325C457.762 380.25 459.225 383.175 462.15 385.369 446.794 383.906 431.437 382.444 415.35 381.712 414.619 368.55 411.694 356.119 405.844 344.419 427.05 345.15 448.256 346.612 468.731 348.806 458.494 356.85 453.375 367.819 456.3 377.325L456.3 377.325ZM507.487 339.3C497.981 337.837 488.475 339.3 479.7 342.956 454.106 340.031 428.512 337.837 401.456 337.106 396.337 329.062 389.756 321.75 381.712 316.631 377.325 313.706 373.669 310.05 371.475 305.662L371.475 299.812C416.812 299.812 462.15 303.469 507.487 310.05L507.487 339.3Z" transform="matrix(1 0 0 1.00036 420 144.546)"/></g></g></g><path d="M969.5 952 641.5 952C630.225 952 621 961.252 621 972.56L621 1047.09C626.638 1045.55 633.3 1044.52 639.45 1044.52 643.55 1044.52 647.65 1045.03 651.75 1045.55L651.75 982.84 959.25 982.84 959.25 1178.16 785.513 1178.16 756.3 1209 969.5 1209C980.775 1209 990 1199.75 990 1188.44L990 972.56C990 961.252 980.775 952 969.5 952" fill-rule="evenodd"/><path d="M639.505 1153C663.555 1153 683 1133.33 683 1109 683 1084.67 663.555 1065 639.505 1065 615.455 1065 596.01 1084.67 596.01 1109 595.498 1133.33 615.455 1153 639.505 1153" fill-rule="evenodd"/><path d="M819.729 1115.5C813.136 1107.79 799.95 1105.86 789.806 1110.49 787.778 1111.26 786.763 1112.8 785.749 1113.57L711.702 1172.22C704.601 1169.51 696.993 1167.2 689.386 1165.27 677.721 1163.73 665.549 1161.8 653.884 1161.8 642.219 1161.8 630.047 1163.34 618.382 1166.04 601.138 1169.51 585.923 1176.07 573.244 1184.18 570.201 1186.49 567.665 1189.96 566.65 1193.05L556 1227 707.644 1227 707.644 1226.61 750.754 1188.42 817.193 1135.18C823.28 1130.55 825.308 1121.67 819.729 1115.5" fill-rule="evenodd"/><text font-family="Calibri,Calibri_MSFontService,sans-serif" font-weight="700" font-size="55" transform="matrix(1 0 0 1 725.746 1034)">новые </text><text font-family="Calibri,Calibri_MSFontService,sans-serif" font-weight="700" font-size="55" transform="matrix(1 0 0 1 725.746 1100)">слова</text></g></svg>